{
	"asset":{
		"generator":"Khronos glTF Blender I/O v3.6.27",
		"version":"2.0"
	},
	"scene":0,
	"scenes":[
		{
			"name":"Scene",
			"nodes":[
				0,
				1
			]
		}
	],
	"nodes":[
		{
			"mesh":0,
			"name":"gameBoy",
			"scale":[
				0.6766585111618042,
				1,
				1
			],
			"translation":[
				-0.12226104736328125,
				0.01861727237701416,
				-0.023958133533596992
			]
		},
		{
			"mesh":1,
			"name":"glass",
			"scale":[
				0.6766585111618042,
				1,
				1
			],
			"translation":[
				-0.11940305680036545,
				0.01861727237701416,
				-0.023958133533596992
			]
		}
	],
	"materials":[
		{
			"doubleSided":true,
			"emissiveFactor":[
				1,
				1,
				1
			],
			"emissiveTexture":{
				"index":0
			},
			"name":"BakedMat",
			"pbrMetallicRoughness":{
				"baseColorTexture":{
					"index":1
				},
				"metallicFactor":0,
				"roughnessFactor":0.5
			}
		},
		{
			"alphaMode":"BLEND",
			"doubleSided":true,
			"name":"Glass.004",
			"pbrMetallicRoughness":{
				"baseColorFactor":[
					0.30097532272338867,
					0.30097532272338867,
					0.30097532272338867,
					0.4202950596809387
				],
				"metallicFactor":0,
				"roughnessFactor":0
			}
		}
	],
	"meshes":[
		{
			"name":"gameBoy",
			"primitives":[
				{
					"attributes":{
						"POSITION":0,
						"TEXCOORD_0":1
					},
					"indices":2,
					"material":0
				}
			]
		},
		{
			"name":"glass",
			"primitives":[
				{
					"attributes":{
						"POSITION":3,
						"TEXCOORD_0":4
					},
					"indices":5,
					"material":1
				}
			]
		}
	],
	"textures":[
		{
			"sampler":0,
			"source":0
		},
		{
			"sampler":0,
			"source":0
		}
	],
	"images":[
		{
			"mimeType":"image/jpg",
			"name":"gameBoyPixelTexture",
			"uri":"gameboy.jpg"
		}
	],
	"accessors":[
		{
			"bufferView":0,
			"componentType":5126,
			"count":572,
			"max":[
				1.0377471446990967,
				2.3760554790496826,
				1.4323999881744385
			],
			"min":[
				-0.6387820243835449,
				-2.352325677871704,
				-1.4582910537719727
			],
			"type":"VEC3"
		},
		{
			"bufferView":1,
			"componentType":5126,
			"count":572,
			"type":"VEC2"
		},
		{
			"bufferView":2,
			"componentType":5123,
			"count":1566,
			"type":"SCALAR"
		},
		{
			"bufferView":3,
			"componentType":5126,
			"count":4,
			"max":[
				0.9128087759017944,
				1.7667186260223389,
				0.7599957585334778
			],
			"min":[
				0.9128075838088989,
				0.38283759355545044,
				-0.7568696141242981
			],
			"type":"VEC3"
		},
		{
			"bufferView":4,
			"componentType":5126,
			"count":4,
			"type":"VEC2"
		},
		{
			"bufferView":5,
			"componentType":5123,
			"count":6,
			"type":"SCALAR"
		}
	],
	"bufferViews":[
		{
			"buffer":0,
			"byteLength":6864,
			"byteOffset":0,
			"target":34962
		},
		{
			"buffer":0,
			"byteLength":4576,
			"byteOffset":6864,
			"target":34962
		},
		{
			"buffer":0,
			"byteLength":3132,
			"byteOffset":11440,
			"target":34963
		},
		{
			"buffer":0,
			"byteLength":48,
			"byteOffset":14572,
			"target":34962
		},
		{
			"buffer":0,
			"byteLength":32,
			"byteOffset":14620,
			"target":34962
		},
		{
			"buffer":0,
			"byteLength":12,
			"byteOffset":14652,
			"target":34963
		}
	],
	"samplers":[
		{
			"magFilter":9729,
			"minFilter":9987
		}
	],
	"buffers":[
		{
			"byteLength":14664,
			"uri":"gameboy.bin"
		}
	]
}
