{
	"asset":{
		"generator":"Khronos glTF Blender I/O v3.6.27",
		"version":"2.0"
	},
	"scene":0,
	"scenes":[
		{
			"name":"Scene",
			"nodes":[
				0
			]
		}
	],
	"nodes":[
		{
			"mesh":0,
			"name":"Grid",
			"rotation":[
				0,
				0.7071066498756409,
				0,
				0.70710688829422
			],
			"scale":[
				0.3108743727207184,
				0.31087440252304077,
				0.3108743727207184
			],
			"translation":[
				0,
				0,
				-4
			]
		}
	],
	"materials":[
		{
			"name":"green",
			"pbrMetallicRoughness":{
				"baseColorFactor":[
					0.3698669970035553,
					0.5814639925956726,
					0.14521600306034088,
					1
				],
				"metallicFactor":0,
				"roughnessFactor":0.9039215445518494
			}
		},
		{
			"name":"white",
			"pbrMetallicRoughness":{
				"baseColorFactor":[
					0.800000011920929,
					0.800000011920929,
					0.800000011920929,
					1
				],
				"metallicFactor":0,
				"roughnessFactor":0.9039215445518494
			}
		},
		{
			"name":"brown",
			"pbrMetallicRoughness":{
				"baseColorFactor":[
					0.5488520264625549,
					0.26682600378990173,
					0.1271740049123764,
					1
				],
				"metallicFactor":0,
				"roughnessFactor":0.9039215445518494
			}
		},
		{
			"name":"blue",
			"pbrMetallicRoughness":{
				"baseColorFactor":[
					0.07798299938440323,
					0.3074150085449219,
					0.800000011920929,
					1
				],
				"metallicFactor":0,
				"roughnessFactor":0.9039215445518494
			}
		}
	],
	"meshes":[
		{
			"name":"Grid-Mesh",
			"primitives":[
				{
					"attributes":{
						"POSITION":0
					},
					"indices":1,
					"material":0
				},
				{
					"attributes":{
						"POSITION":2
					},
					"indices":3,
					"material":1
				},
				{
					"attributes":{
						"POSITION":4
					},
					"indices":5,
					"material":2
				},
				{
					"attributes":{
						"POSITION":6
					},
					"indices":7,
					"material":3
				}
			]
		}
	],
	"accessors":[
		{
			"bufferView":0,
			"componentType":5126,
			"count":155,
			"max":[
				14.34546947479248,
				11.524511337280273,
				27.356216430664062
			],
			"min":[
				-19.301973342895508,
				-11.373597145080566,
				-32.241214752197266
			],
			"type":"VEC3"
		},
		{
			"bufferView":1,
			"componentType":5123,
			"count":507,
			"type":"SCALAR"
		},
		{
			"bufferView":2,
			"componentType":5126,
			"count":83,
			"max":[
				13.303269386291504,
				12.254778861999512,
				24.096895217895508
			],
			"min":[
				-20.090471267700195,
				-10.841605186462402,
				-25.84406852722168
			],
			"type":"VEC3"
		},
		{
			"bufferView":3,
			"componentType":5123,
			"count":213,
			"type":"SCALAR"
		},
		{
			"bufferView":4,
			"componentType":5126,
			"count":158,
			"max":[
				13.959196090698242,
				11.524511337280273,
				25.407068252563477
			],
			"min":[
				-20.090471267700195,
				-8.143169403076172,
				-20.064456939697266
			],
			"type":"VEC3"
		},
		{
			"bufferView":5,
			"componentType":5123,
			"count":471,
			"type":"SCALAR"
		},
		{
			"bufferView":6,
			"componentType":5126,
			"count":9,
			"max":[
				1.773533821105957,
				0.9880982637405396,
				6.7121758460998535
			],
			"min":[
				-5.269082546234131,
				-3.0952413082122803,
				-2.367323160171509
			],
			"type":"VEC3"
		},
		{
			"bufferView":7,
			"componentType":5123,
			"count":24,
			"type":"SCALAR"
		}
	],
	"bufferViews":[
		{
			"buffer":0,
			"byteLength":1860,
			"byteOffset":0,
			"target":34962
		},
		{
			"buffer":0,
			"byteLength":1014,
			"byteOffset":1860,
			"target":34963
		},
		{
			"buffer":0,
			"byteLength":996,
			"byteOffset":2876,
			"target":34962
		},
		{
			"buffer":0,
			"byteLength":426,
			"byteOffset":3872,
			"target":34963
		},
		{
			"buffer":0,
			"byteLength":1896,
			"byteOffset":4300,
			"target":34962
		},
		{
			"buffer":0,
			"byteLength":942,
			"byteOffset":6196,
			"target":34963
		},
		{
			"buffer":0,
			"byteLength":108,
			"byteOffset":7140,
			"target":34962
		},
		{
			"buffer":0,
			"byteLength":48,
			"byteOffset":7248,
			"target":34963
		}
	],
	"buffers":[
		{
			"byteLength":7296,
			"uri":"data:application/octet-stream;base64,"
		}
	]
}
